<svg xmlns="http://www.w3.org/2000/svg" width="1400" height="800" viewBox="0 0 1400 800"><defs><linearGradient id="bg" x1="0" y1="0" x2="1" y2="1"><stop offset="0%" stop-color="#1a120a"/><stop offset="100%" stop-color="#0d0a06"/></linearGradient><radialGradient id="glow" cx="50%" cy="45%" r="50%"><stop offset="0%" stop-color="#f59e0b" stop-opacity="0.2"/><stop offset="100%" stop-color="#f59e0b" stop-opacity="0"/></radialGradient></defs><rect width="1400" height="800" fill="url(#bg)"/><rect width="1400" height="800" fill="url(#glow)"/><rect x="300" y="150" width="800" height="500" rx="24" fill="#1c1408" stroke="#f59e0b" stroke-opacity="0.15" stroke-width="1"/><rect x="340" y="200" width="720" height="60" rx="12" fill="#2a1f10" stroke="#f59e0b" stroke-opacity="0.1"/><text x="370" y="238" font-family="system-ui" font-size="22" fill="#f59e0b" opacity="0.8">Expense Categories</text><rect x="340" y="290" width="220" height="120" rx="16" fill="#2a1f10"/><rect x="340" y="290" width="220" height="6" rx="3" fill="#f59e0b" opacity="0.6"/><text x="370" y="340" font-family="system-ui" font-size="16" fill="#d4a574">Food</text><text x="370" y="380" font-family="system-ui" font-size="28" font-weight="bold" fill="#fbbf24">42%</text><rect x="590" y="290" width="220" height="120" rx="16" fill="#2a1f10"/><rect x="590" y="290" width="220" height="6" rx="3" fill="#3b82f6" opacity="0.6"/><text x="620" y="340" font-family="system-ui" font-size="16" fill="#93b4d4">Travel</text><text x="620" y="380" font-family="system-ui" font-size="28" font-weight="bold" fill="#60a5fa">28%</text><rect x="840" y="290" width="220" height="120" rx="16" fill="#2a1f10"/><rect x="840" y="290" width="220" height="6" rx="3" fill="#22c55e" opacity="0.6"/><text x="870" y="340" font-family="system-ui" font-size="16" fill="#86d4a0">Office</text><text x="870" y="380" font-family="system-ui" font-size="28" font-weight="bold" fill="#4ade80">30%</text><rect x="340" y="440" width="720" height="180" rx="16" fill="#2a1f10"/><rect x="370" y="470" width="660" height="16" rx="8" fill="#1a1208"/><rect x="370" y="470" width="280" height="16" rx="8" fill="#f59e0b" opacity="0.5"/><rect x="370" y="500" width="660" height="16" rx="8" fill="#1a1208"/><rect x="370" y="500" width="185" height="16" rx="8" fill="#3b82f6" opacity="0.5"/><rect x="370" y="530" width="660" height="16" rx="8" fill="#1a1208"/><rect x="370" y="530" width="200" height="16" rx="8" fill="#22c55e" opacity="0.5"/><rect x="370" y="560" width="660" height="16" rx="8" fill="#1a1208"/><rect x="370" y="560" width="130" height="16" rx="8" fill="#e879f9" opacity="0.5"/><rect x="370" y="590" width="660" height="16" rx="8" fill="#1a1208"/><rect x="370" y="590" width="95" height="16" rx="8" fill="#fb7185" opacity="0.5"/></svg>
